<svg version="1.1" id="Layer_1" xmlns="http://www.w3.org/2000/svg" xmlns:xlink="http://www.w3.org/1999/xlink" x="0px"
     y="0px" width="150" height="55px" viewBox="0 0 255 55" style="enable-background:new 0 0 255 55;"
     xml:space="preserve">
    <g>
        <g>
            <path class="st0" d="M129.4,29.9h-14.8l-2.4,5.3h-5.8l12.7-28.4h5.8l12.7,28.4h-5.8L129.4,29.9z M122,12.9l-5.3,12.1h10.5
                                L122,12.9z"></path>
            <path class="st0"
                  d="M161.2,35.3H140c0-9.5,0-18.9,0-28.4h21.2v5.2h-15.9v6.5h15.3v5h-15.3V30h15.9V35.3z"></path>
            <path class="st0" d="M189.3,35.2H183l-8.2-9.5h-5.1v9.5h-5.3V6.9c4.5,0,9,0.1,13.5,0.1c6.7,0.1,10.2,4.5,10.2,9.4
                                c0,3.9-1.8,7.8-7.2,8.9l8.6,9.6V35.2z M169.6,11.9v9.1h8.1c3.4,0,4.8-2.3,4.8-4.6s-1.5-4.6-4.8-4.6L169.6,11.9L169.6,11.9z"></path>
            <path class="st0" d="M219.8,21.2c-0.1,7.1-4.6,14.1-14.5,14.1s-14.6-6.9-14.6-14c0-7.2,4.8-14.3,14.6-14.3
                                C215,6.9,219.8,14.1,219.8,21.2z M195.9,21.3c0.1,4.4,2.6,9.2,9.3,9.2c6.7,0,9.2-4.8,9.3-9.3c0.1-4.6-2.6-9.7-9.3-9.7
                                C198.6,11.5,195.8,16.7,195.9,21.3z"></path>
        </g>
        <g>
            <rect x="226.1" y="21" class="st1" width="12.6" height="12.6"></rect>
            <rect x="226.1" y="36.8" class="st1" width="12.6" height="12.6"></rect>
            <rect x="241.9" y="21" class="st1" width="12.6" height="12.6"></rect>
            <rect x="241.9" y="36.8" class="st1" width="12.6" height="12.6"></rect>
        </g>
        <g>
            <path class="st0"
                  d="M25.2,10L14.3,26.6h-0.7L2.7,10v25.2H0.5V6.9c1.1,0,1.6,0,2.6,0L14,23.4L24.7,6.9h2.7v28.4h-2.2V10z"></path>
            <path class="st0" d="M53.8,12.4C51.4,10,48,8.8,44.9,8.8c-8.1,0-12.2,5.9-12.2,12.3c0,6.5,4.1,12.1,12.2,12.1c2.9,0,6-1,8.4-3.2
                                v-7.8h-9.6v-1.8h11.6v10.3c-2.9,2.9-6.3,4.4-10.4,4.4c-9.4,0-14.2-6.6-14.2-14.1c-0.1-8.6,5.8-14.3,14.2-14.3
                                c3.6,0,7.3,1.4,10.1,4.2L53.8,12.4z"></path>
            <path class="st0" d="M81.7,12.4c-2.4-2.4-5.7-3.6-8.8-3.6c-8.1,0-12.2,5.9-12.2,12.3c0,6.5,4.1,12.1,12.2,12.1c2.9,0,6-1,8.4-3.2
                                v-7.7h-9.6v-1.8h11.6v10.3c-2.9,2.9-6.3,4.4-10.4,4.4c-9.4,0-14.2-6.6-14.2-14.1c-0.1-8.6,5.8-14.3,14.2-14.3
                                c3.6,0,7.3,1.4,10.1,4.2L81.7,12.4z"></path>
            <path class="st0" d="M89.1,25.4v9.8h-2.2V6.9c4.1,0,8.3,0,12.5,0c12.3,0,12.3,18.6,0,18.6H89.1z M89.1,8.9v14.6h10.2
                                c9.5,0,9.5-14.6,0-14.6H89.1z"></path>
        </g>
    </g>
</svg>